<svg width="30" height="29" viewBox="0 0 30 29" fill="none" xmlns="http://www.w3.org/2000/svg">
<path fill-rule="evenodd" clip-rule="evenodd" d="M15 0.333344C15.5075 0.333344 15.9709 0.62144 16.1956 1.07651L20.0056 8.7953L28.5261 10.0407C29.0282 10.1141 29.4451 10.4661 29.6016 10.9488C29.7581 11.4314 29.6271 11.9611 29.2636 12.3152L23.0993 18.3192L24.5541 26.8013C24.6399 27.3015 24.4342 27.8071 24.0236 28.1054C23.613 28.4037 23.0686 28.443 22.6194 28.2068L15 24.1998L7.38056 28.2068C6.93134 28.443 6.38695 28.4037 5.97631 28.1054C5.56567 27.8071 5.36001 27.3015 5.44581 26.8013L6.9006 18.3192L0.736314 12.3152C0.372823 11.9611 0.241792 11.4314 0.398296 10.9488C0.5548 10.4661 0.971706 10.1141 1.47379 10.0407L9.99428 8.7953L13.8043 1.07651C14.029 0.62144 14.4925 0.333344 15 0.333344ZM15 4.67902L12.0756 10.6035C11.8815 10.9966 11.5066 11.2693 11.0728 11.3327L4.53117 12.2888L9.2636 16.8982C9.5781 17.2045 9.72165 17.646 9.64744 18.0787L8.53086 24.5889L14.3794 21.5132C14.7679 21.3089 15.232 21.3089 15.6206 21.5132L21.4691 24.5889L20.3525 18.0787C20.2783 17.646 20.4218 17.2045 20.7363 16.8982L25.4687 12.2888L18.9271 11.3327C18.4933 11.2693 18.1184 10.9966 17.9243 10.6035L15 4.67902Z" fill="#212121"/>
</svg>
