<svg width="64" height="64" viewBox="0 0 64 64" fill="none" xmlns="http://www.w3.org/2000/svg">
<path fill-rule="evenodd" clip-rule="evenodd" d="M5.33331 26.6667C5.33331 25.1939 6.52722 24 7.99998 24H56C57.4727 24 58.6666 25.1939 58.6666 26.6667C58.6666 28.1394 57.4727 29.3333 56 29.3333H7.99998C6.52722 29.3333 5.33331 28.1394 5.33331 26.6667Z" fill="black"/>
<path fill-rule="evenodd" clip-rule="evenodd" d="M5.33331 16C5.33331 14.5272 6.52722 13.3333 7.99998 13.3333H56C57.4727 13.3333 58.6666 14.5272 58.6666 16C58.6666 17.4728 57.4727 18.6667 56 18.6667H7.99998C6.52722 18.6667 5.33331 17.4728 5.33331 16Z" fill="black"/>
<path fill-rule="evenodd" clip-rule="evenodd" d="M5.33331 37.3333C5.33331 35.8606 6.52722 34.6667 7.99998 34.6667H56C57.4727 34.6667 58.6666 35.8606 58.6666 37.3333C58.6666 38.8061 57.4727 40 56 40H7.99998C6.52722 40 5.33331 38.8061 5.33331 37.3333Z" fill="black"/>
<path fill-rule="evenodd" clip-rule="evenodd" d="M5.33331 48C5.33331 46.5272 6.52722 45.3333 7.99998 45.3333H56C57.4727 45.3333 58.6666 46.5272 58.6666 48C58.6666 49.4728 57.4727 50.6667 56 50.6667H7.99998C6.52722 50.6667 5.33331 49.4728 5.33331 48Z" fill="black"/>
</svg>
